Coordinates
version=1
nRows=16
nColumns=40
inDegrees=yes

Units are S.I. units (second, meters, Newtons, ...)
Angles are in degrees.

endheader
time	pelvis_tilt	pelvis_list	pelvis_rotation	pelvis_tx	pelvis_ty	pelvis_tz	hip_flexion_r	hip_adduction_r	hip_rotation_r	knee_angle_r	knee_angle_r_beta	ankle_angle_r	subtalar_angle_r	mtp_angle_r	hip_flexion_l	hip_adduction_l	hip_rotation_l	knee_angle_l	knee_angle_l_beta	ankle_angle_l	subtalar_angle_l	mtp_angle_l	lumbar_extension	lumbar_bending	lumbar_rotation	arm_flex_r	arm_add_r	arm_rot_r	elbow_flex_r	pro_sup_r	wrist_flex_r	wrist_dev_r	arm_flex_l	arm_add_l	arm_rot_l	elbow_flex_l	pro_sup_l	wrist_flex_l	wrist_dev_l
      0.54000000	     -3.70659118	     -5.60361660	     -2.80817000	      0.83377846	      0.93156168	      0.52808716	     12.95596276	      4.81626194	    -15.90411796	     15.28456892	     15.28456892	      8.78280865	      6.59379080	     -5.31486629	     26.09955319	    -13.87224436	     -3.56584195	     52.23928689	     52.23928689	     15.42572955	    -19.12665398	     18.38281031	    -10.24813958	      8.82698082	      2.35959765	     21.20725062	    -15.01463285	     -3.60587603	     42.42441380	     42.74146005	      0.00000000	      0.00000000	      4.81102885	     -8.05696636	     -4.25851178	     52.43488540	     42.93646480	      0.00000000	      0.00000000
      0.55335714	     -3.76533178	     -5.34026340	     -2.50885925	      0.83141054	      0.93180135	      0.52739035	     12.62968319	      4.52630971	    -15.77880685	     15.14486051	     15.14486051	      9.07634081	      6.20329964	     -5.45597334	     26.96170978	    -13.33540375	     -3.08502698	     49.76304004	     49.76304004	     15.47823208	    -19.05810512	     18.23316751	    -10.28668012	      8.66901377	      2.14300011	     23.19550935	    -14.92482908	     -3.63715279	     43.92875956	     42.73451046	      0.00000000	      0.00000000	      3.59760693	     -8.23705596	     -4.31572568	     50.99040993	     42.97019788	      0.00000000	      0.00000000
      0.56671429	     -3.83518072	     -5.12018424	     -2.21067182	      0.82908747	      0.93199805	      0.52674094	     12.30466521	      4.28137369	    -15.69269518	     14.99061756	     14.99061756	      9.28402640	      5.84129231	     -5.63834375	     27.63912931	    -12.80855820	     -2.57016079	     46.96880204	     46.96880204	     15.33048347	    -18.94441953	     17.94245560	    -10.25979821	      8.46479048	      1.85431456	     25.20533367	    -15.01765670	     -3.56612490	     45.83387460	     42.70919223	      0.00000000	      0.00000000	      2.48308715	     -8.26618870	     -4.47518114	     49.15815992	     43.01508165	      0.00000000	      0.00000000
      0.58007143	     -3.90321821	     -4.92048387	     -1.91378662	      0.82676388	      0.93205218	      0.52592207	     11.97974250	      4.05264143	    -15.62079956	     14.81990188	     14.81990188	      9.45025659	      5.43816870	     -5.93681732	     28.17583941	    -12.22686734	     -1.98077557	     44.00693996	     44.00693996	     15.07834069	    -18.82612612	     17.25092295	    -10.32087195	      8.38482089	      1.63927888	     26.96506410	    -15.14272686	     -3.23847918	     48.34721127	     42.66472007	      0.00000000	      0.00000000	      1.66191606	     -8.20724360	     -4.87755971	     46.68206630	     43.10473664	      0.00000000	      0.00000000
      0.59342857	     -4.02579859	     -4.81092226	     -1.63351635	      0.82444587	      0.93197201	      0.52512677	     11.69290161	      3.93814908	    -15.51186974	     14.58776016	     14.58776016	      9.41934904	      4.93150348	     -6.74583101	     28.60680359	    -11.75733750	     -1.43191302	     40.78801453	     40.78801453	     13.98969338	    -18.64559537	     14.83628957	    -10.34259004	      8.40851459	      2.51680676	     27.37352034	    -16.59262846	     -2.10460976	     52.92179406	     42.64943372	      0.00000000	      0.00000000	      2.25305780	     -7.44070374	     -6.35381965	     42.44757113	     43.47773090	      0.00000000	      0.00000000
      0.60678571	     -4.09545024	     -4.61698803	     -1.34240858	      0.82218498	      0.93195645	      0.52425755	     11.40970392	      3.69849318	    -15.45729678	     14.49659783	     14.49659783	      9.68191291	      4.59187266	     -6.86344901	     28.97322049	    -11.11190965	     -0.74736846	     37.71025560	     37.71025560	     13.73114893	    -18.29263619	     14.92009198	    -10.39135564	      8.26610668	      2.27132644	     29.19375556	    -16.52560403	     -2.20119221	     54.62746647	     42.63846602	      0.00000000	      0.00000000	      1.10096083	     -7.62360642	     -6.43940747	     41.26680380	     43.51039127	      0.00000000	      0.00000000
      0.62014286	     -4.18514923	     -4.48021715	     -1.03858148	      0.81992067	      0.93182768	      0.52335041	     11.15306737	      3.52209614	    -15.40540629	     14.41673457	     14.41673457	      9.93977474	      4.19474180	     -7.01100250	     29.32723897	    -10.53559437	     -0.06467694	     34.67253605	     34.67253605	     13.35502663	    -17.66804574	     14.74303473	    -10.42892157	      8.18776064	      1.98696744	     30.88180742	    -16.36864160	     -2.14610004	     56.79077454	     42.60651489	      0.00000000	      0.00000000	      0.13277516	     -7.78536230	     -6.61343153	     39.77038866	     43.55687901	      0.00000000	      0.00000000
      0.63350000	     -4.32431020	     -4.50348042	     -0.74342410	      0.81768457	      0.93146185	      0.52244417	     10.93425403	      3.53294356	    -15.33478273	     14.28837823	     14.28837823	     10.00670210	      3.67435671	     -7.55752371	     29.66227963	    -10.17534860	      0.52874423	     31.58231076	     31.58231076	     11.98958069	    -16.97404008	     11.82781509	    -10.50433269	      8.28827167	      2.62062271	     31.08959000	    -17.38008798	     -1.99123340	     61.81301075	     42.73222794	      0.00000000	      0.00000000	      0.56236472	     -7.37158270	     -8.00797460	     36.27419488	     44.00755103	      0.00000000	      0.00000000
      0.64685714	     -4.44971586	     -4.48259008	     -0.44336697	      0.81549905	      0.93115498	      0.52149494	     10.73093060	      3.47960780	    -15.29181479	     14.23885743	     14.23885743	     10.25473193	      3.22230127	     -7.63203315	     30.09335411	     -9.79049753	      1.02063256	     28.93485073	     28.93485073	     11.70164693	    -15.67824815	     11.68181385	    -10.52984486	      8.30893531	      2.26962139	     32.59484174	    -17.07840025	     -1.92860685	     64.25747022	     42.72898120	      0.00000000	      0.00000000	     -0.39786865	     -7.57153644	     -8.20534429	     35.03694053	     44.08608031	      0.00000000	      0.00000000
      0.66021429	     -4.53761761	     -4.42755990	     -0.15792173	      0.81342245	      0.93087174	      0.52053016	     10.49387315	      3.37914417	    -15.24309488	     14.22610979	     14.22610979	     10.54924983	      2.86407931	     -7.72240990	     30.44589492	     -9.43012992	      1.24934764	     26.45859861	     26.45859861	     11.46491485	    -14.07369734	     11.68520193	    -10.57523684	      8.21120476	      2.00204826	     33.97222903	    -16.78837054	     -1.89066663	     66.42349122	     42.69557213	      0.00000000	      0.00000000	     -1.27925169	     -7.81305833	     -8.33936683	     34.04634195	     44.12409946	      0.00000000	      0.00000000
      0.67357143	     -4.67231246	     -4.54888853	      0.13373866	      0.81146466	      0.93037402	      0.51957657	     10.26075103	      3.50404682	    -15.10849001	     14.12628770	     14.12628770	     10.78233937	      2.31417141	     -7.87250537	     30.93683393	     -9.29207681	      1.34959126	     24.34838660	     24.34838660	     10.90897140	    -12.38805727	     10.70301101	    -10.64318034	      8.34220104	      2.38486012	     34.15215022	    -17.42551479	     -1.71097074	     71.48600687	     42.67866485	      0.00000000	      0.00000000	     -1.37300195	     -7.77568839	     -8.96530945	     32.20419175	     44.34243387	      0.00000000	      0.00000000
      0.68692857	     -4.79556326	     -4.61872630	      0.42046892	      0.80965769	      0.92991716	      0.51855664	     10.02058832	      3.53296964	    -15.17732899	     14.07598381	     14.07598381	     11.02525518	      2.00537642	     -7.95325318	     31.43318250	     -9.10992375	      1.30134250	     22.61707552	     22.61707552	     10.51955414	    -10.80749532	     10.60451952	    -10.66211528	      8.38810348	      2.14418524	     35.18363884	    -17.00554764	     -1.87549468	     74.46791012	     42.68480648	      0.00000000	      0.00000000	     -2.14399137	     -8.03396930	     -9.18578625	     31.05711429	     44.43902878	      0.00000000	      0.00000000
      0.70028571	     -4.86905404	     -4.63245291	      0.66933744	      0.80806455	      0.92954660	      0.51747609	      9.71366066	      3.50231421	    -15.18186200	     14.04223268	     14.04223268	     11.34554016	      1.76027489	     -8.02449267	     31.76398398	     -8.88407115	      1.13397691	     21.08360363	     21.08360363	     10.16396048	     -9.48413885	     10.75421666	    -10.66353100	      8.32230002	      1.79971843	     36.34371914	    -16.42975817	     -1.82534728	     76.85189466	     42.64522158	      0.00000000	      0.00000000	     -2.94905451	     -8.26067923	     -9.26189145	     30.32281025	     44.46874822	      0.00000000	      0.00000000
      0.71364286	     -4.97439713	     -4.73860196	      0.91661560	      0.80666230	      0.92905240	      0.51633539	      9.40060243	      3.57272938	    -15.21864616	     13.94849221	     13.94849221	     11.65035234	      1.57524152	     -8.08192132	     32.16148295	     -8.77005556	      0.89456201	     19.99446424	     19.99446424	      9.75617613	     -8.38959147	     10.87258832	    -10.63165360	      8.38552349	      1.47456588	     37.34670329	    -15.85251888	     -1.67464245	     79.56394305	     42.58488237	      0.00000000	      0.00000000	     -3.73545136	     -8.43277905	     -9.33576528	     29.66548791	     44.49422070	      0.00000000	      0.00000000
      0.72700000	     -5.04749075	     -4.92666544	      1.10613761	      0.80560156	      0.92845591	      0.51526329	      8.98306756	      3.75671884	    -15.22800583	     13.76428816	     13.76428816	     11.94693451	      1.42094806	     -8.12423308	     32.58968161	     -8.81794906	      0.48384262	     19.47216172	     19.47216172	      9.33306540	     -7.47248951	     10.55670142	    -10.69263229	      8.49099326	      2.02984904	     37.21378940	    -16.45751851	     -1.59188533	     84.75447557	     42.53240081	      0.00000000	      0.00000000	     -4.04291595	     -8.55141105	     -9.57373999	     29.06680679	     44.61594377	      0.00000000	      0.00000000
      0.74035714	     -5.08729460	     -5.01833569	      1.25547888	      0.80486887	      0.92796199	      0.51408271	      8.50627809	      3.81963289	    -15.23926934	     13.59612979	     13.59612979	     12.29353956	      1.41531382	     -8.17735523	     32.76880370	     -8.74781918	      0.16486317	     19.06126611	     19.06126611	      8.86927486	     -7.14697697	     10.62677580	    -10.63427551	      8.46263248	      1.72414418	     38.08622860	    -15.74653682	     -1.55097552	     87.20362215	     42.49530213	      0.00000000	      0.00000000	     -4.80358939	     -8.78128389	     -9.57832904	     28.45107559	     44.63607587	      0.00000000	      0.00000000
